<svg xmlns="http://www.w3.org/2000/svg" height="12px" width="50px" viewBox="0 0 50 12"><g><path d="M19.69,9.28 L19.69,4.28 L21.27,4.28 L21.27,9.28 L19.69,9.28 Z M5.97,0.00 C9.27,0.00 11.95,2.69 11.95,6.00 C11.95,9.31 9.27,12.00 5.97,12.00 C5.38,12.00 4.80,11.91 4.26,11.75 C4.26,11.75 4.26,11.75 4.26,11.75 C4.25,11.75 4.24,11.74 4.23,11.74 L4.21,11.73 C4.21,11.73 4.21,11.73 4.21,11.73 C4.45,11.33 4.81,10.68 4.95,10.16 C5.02,9.88 5.32,8.73 5.32,8.73 C5.52,9.11 6.08,9.42 6.69,9.42 C8.49,9.42 9.79,7.76 9.79,5.69 C9.79,3.71 8.18,2.23 6.11,2.23 C3.53,2.23 2.16,3.96 2.16,5.86 C2.16,6.74 2.63,7.83 3.37,8.18 C3.49,8.23 3.55,8.21 3.57,8.10 C3.59,8.02 3.69,7.61 3.74,7.42 C3.75,7.36 3.75,7.31 3.70,7.25 C3.45,6.95 3.25,6.39 3.25,5.88 C3.25,4.55 4.25,3.27 5.95,3.27 C7.42,3.27 8.45,4.28 8.45,5.71 C8.45,7.34 7.63,8.46 6.57,8.46 C5.98,8.46 5.54,7.98 5.68,7.38 C5.85,6.67 6.18,5.90 6.18,5.38 C6.18,4.92 5.93,4.54 5.42,4.54 C4.82,4.54 4.34,5.16 4.34,5.99 C4.34,6.52 4.52,6.88 4.52,6.88 C4.52,6.88 3.93,9.40 3.82,9.87 C3.70,10.38 3.75,11.11 3.80,11.59 L3.80,11.59 C3.79,11.59 3.78,11.58 3.78,11.58 C3.77,11.58 3.76,11.58 3.76,11.57 C3.76,11.57 3.76,11.57 3.76,11.57 C1.56,10.69 0.00,8.53 0.00,6.00 C0.00,2.69 2.67,0.00 5.97,0.00 Z M16.87,2.31 C17.71,2.31 18.34,2.54 18.76,2.95 C19.21,3.37 19.46,3.96 19.46,4.66 C19.46,6.00 18.54,6.95 17.11,6.95 L15.72,6.95 L15.72,9.28 L14.12,9.28 L14.12,2.31 L16.87,2.31 Z M16.94,5.58 C17.56,5.58 17.91,5.21 17.91,4.65 C17.91,4.10 17.55,3.76 16.94,3.76 L15.72,3.76 L15.72,5.58 L16.94,5.58 Z M50.00,5.28 L49.19,5.28 L49.19,7.62 C49.19,8.01 49.40,8.11 49.74,8.11 C49.83,8.11 49.93,8.10 50.00,8.10 L50.00,9.28 C49.84,9.31 49.58,9.33 49.22,9.33 C48.30,9.33 47.64,9.03 47.64,7.96 L47.64,5.28 L47.16,5.28 L47.16,4.28 L47.64,4.28 L47.64,2.70 L49.19,2.70 L49.19,4.28 L50.00,4.28 L50.00,5.28 Z M45.31,6.13 C46.18,6.27 47.21,6.50 47.21,7.77 C47.21,8.87 46.25,9.43 44.95,9.43 C43.55,9.43 42.65,8.81 42.54,7.78 L44.05,7.78 C44.15,8.20 44.46,8.40 44.94,8.40 C45.42,8.40 45.72,8.22 45.72,7.90 C45.72,7.45 45.12,7.40 44.46,7.29 C43.59,7.14 42.67,6.91 42.67,5.74 C42.67,4.68 43.64,4.14 44.82,4.14 C46.22,4.14 46.98,4.75 47.06,5.74 L45.60,5.74 C45.54,5.29 45.24,5.15 44.80,5.15 C44.42,5.15 44.12,5.30 44.12,5.61 C44.12,5.96 44.68,6.01 45.31,6.13 Z M20.48,2.00 C21.00,2.00 21.43,2.42 21.43,2.95 C21.43,3.48 21.00,3.90 20.48,3.90 C19.95,3.90 19.53,3.48 19.53,2.95 C19.53,2.42 19.95,2.00 20.48,2.00 Z M28.48,7.62 C28.48,8.01 28.70,8.11 29.04,8.11 C29.10,8.11 29.18,8.10 29.24,8.10 L29.24,9.29 C29.08,9.31 28.83,9.33 28.52,9.33 C27.60,9.33 26.94,9.03 26.94,7.96 L26.94,5.28 L26.42,5.28 L26.42,4.28 L26.94,4.28 L26.94,2.70 L28.48,2.70 L28.48,4.28 L29.24,4.28 L29.24,5.28 L28.48,5.28 L28.48,7.62 Z M24.69,4.14 C25.77,4.14 26.41,4.92 26.41,6.03 L26.41,9.28 L24.83,9.28 L24.83,6.35 C24.83,5.82 24.57,5.46 24.05,5.46 C23.53,5.46 23.18,5.90 23.18,6.52 L23.18,9.28 L21.60,9.28 L21.60,4.28 L23.12,4.28 L23.12,4.97 L23.15,4.97 C23.52,4.43 24.00,4.14 24.69,4.14 Z M33.42,4.76 C32.99,4.37 32.43,4.14 31.72,4.14 C30.20,4.14 29.16,5.28 29.16,6.77 C29.16,8.28 30.17,9.42 31.81,9.42 C32.44,9.42 32.95,9.26 33.37,8.96 C33.80,8.66 34.10,8.23 34.20,7.78 L32.66,7.78 C32.52,8.10 32.25,8.28 31.83,8.28 C31.18,8.28 30.81,7.86 30.72,7.19 L34.29,7.19 C34.30,6.18 34.01,5.31 33.42,4.76 L33.42,4.76 Z M41.66,4.76 C42.26,5.31 42.55,6.18 42.54,7.19 L38.97,7.19 C39.06,7.86 39.43,8.28 40.08,8.28 C40.50,8.28 40.77,8.10 40.91,7.78 L42.45,7.78 C42.34,8.23 42.05,8.66 41.62,8.96 C41.20,9.26 40.69,9.42 40.06,9.42 C38.42,9.42 37.41,8.28 37.41,6.77 C37.41,5.28 38.45,4.14 39.97,4.14 C40.67,4.14 41.24,4.37 41.66,4.76 Z M30.73,6.24 C30.83,5.65 31.14,5.27 31.75,5.27 C32.26,5.27 32.63,5.65 32.69,6.24 L30.73,6.24 Z M38.98,6.24 L40.94,6.24 C40.88,5.65 40.51,5.27 40.00,5.27 C39.39,5.27 39.08,5.65 38.98,6.24 Z M37.54,4.21 L37.54,5.60 C36.64,5.51 36.07,5.99 36.07,7.03 L36.07,9.28 L34.48,9.28 L34.48,4.28 L36.00,4.28 L36.00,5.06 L36.03,5.06 C36.38,4.47 36.78,4.21 37.39,4.21 C37.45,4.21 37.50,4.21 37.54,4.21 Z" fill="#111"></path></g></svg>